<svg width="290" height="298" viewBox="0 0 290 298" fill="none" xmlns="http://www.w3.org/2000/svg">
<path style="mix-blend-mode:color-dodge" d="M110.479 229.05C111.109 226.392 109.464 223.726 106.804 223.096C104.144 222.466 101.476 224.111 100.846 226.769C100.216 229.428 101.861 232.093 104.521 232.723C107.181 233.353 109.849 231.709 110.479 229.05Z" fill="url(#paint0_radial_382_2110)"/>
<path style="mix-blend-mode:color-dodge" d="M173.302 58.4067C173.302 55.6737 175.517 53.4597 178.252 53.4597C180.986 53.4597 183.202 55.6737 183.202 58.4067C183.202 61.1396 180.986 63.3536 178.252 63.3536C175.517 63.3536 173.302 61.1396 173.302 58.4067Z" fill="url(#paint1_radial_382_2110)"/>
<path style="mix-blend-mode:color-dodge" d="M24.7611 163.065C24.7611 160.332 26.9765 158.118 29.7111 158.118C32.4457 158.118 34.6611 160.332 34.6611 163.065C34.6611 165.798 32.4457 168.012 29.7111 168.012C26.9765 168.012 24.7611 165.798 24.7611 163.065Z" fill="url(#paint2_radial_382_2110)"/>
<path style="mix-blend-mode:color-dodge" d="M177.715 274.401C177.715 272.838 178.984 271.57 180.548 271.57C182.111 271.57 183.381 272.838 183.381 274.401C183.381 275.963 182.111 277.232 180.548 277.232C178.984 277.232 177.715 275.963 177.715 274.401Z" fill="url(#paint3_radial_382_2110)"/>
<path style="mix-blend-mode:color-dodge" d="M163.2 295.169C163.2 293.606 164.469 292.338 166.033 292.338C167.596 292.338 168.865 293.606 168.865 295.169C168.865 296.731 167.596 298 166.033 298C164.469 298 163.2 296.731 163.2 295.169Z" fill="url(#paint4_radial_382_2110)"/>
<path style="mix-blend-mode:color-dodge" d="M106.35 288.319C106.35 286.757 107.619 285.488 109.183 285.488C110.746 285.488 112.015 286.757 112.015 288.319C112.015 289.882 110.746 291.15 109.183 291.15C107.619 291.15 106.35 289.882 106.35 288.319Z" fill="url(#paint5_radial_382_2110)"/>
<path style="mix-blend-mode:color-dodge" d="M29.8843 72.7865C29.8843 71.224 31.1535 69.9556 32.717 69.9556C34.2804 69.9556 35.5497 71.224 35.5497 72.7865C35.5497 74.349 34.2804 75.6175 32.717 75.6175C31.1535 75.6175 29.8843 74.349 29.8843 72.7865Z" fill="url(#paint6_radial_382_2110)"/>
<path style="mix-blend-mode:color-dodge" d="M52.6785 217.574C52.6785 216.012 53.9477 214.743 55.5112 214.743C57.0746 214.743 58.3439 216.012 58.3439 217.574C58.3439 219.137 57.0746 220.405 55.5112 220.405C53.9477 220.405 52.6785 219.137 52.6785 217.574Z" fill="url(#paint7_radial_382_2110)"/>
<path style="mix-blend-mode:color-dodge" d="M230.169 258.459C231.734 258.459 233.002 257.191 233.002 255.628C233.002 254.064 231.734 252.797 230.169 252.797C228.605 252.797 227.337 254.064 227.337 255.628C227.337 257.191 228.605 258.459 230.169 258.459Z" fill="url(#paint8_radial_382_2110)"/>
<path style="mix-blend-mode:color-dodge" d="M233.014 193.26C233.014 191.698 234.283 190.429 235.846 190.429C237.41 190.429 238.679 191.698 238.679 193.26C238.679 194.823 237.41 196.091 235.846 196.091C234.283 196.091 233.014 194.823 233.014 193.26Z" fill="url(#paint9_radial_382_2110)"/>
<path style="mix-blend-mode:color-dodge" d="M261.352 217.886C261.352 216.323 262.621 215.055 264.185 215.055C265.748 215.055 267.017 216.323 267.017 217.886C267.017 219.448 265.748 220.717 264.185 220.717C262.621 220.717 261.352 219.448 261.352 217.886Z" fill="url(#paint10_radial_382_2110)"/>
<path style="mix-blend-mode:color-dodge" d="M112.713 262.259C112.713 260.696 113.982 259.428 115.546 259.428C117.109 259.428 118.379 260.696 118.379 262.259C118.379 263.821 117.109 265.09 115.546 265.09C113.982 265.09 112.713 263.821 112.713 262.259Z" fill="url(#paint11_radial_382_2110)"/>
<path style="mix-blend-mode:color-dodge" d="M71.3595 255.437C71.3595 253.875 72.6287 252.606 74.1922 252.606C75.7557 252.606 77.0249 253.875 77.0249 255.437C77.0249 257 75.7557 258.268 74.1922 258.268C72.6287 258.268 71.3595 257 71.3595 255.437Z" fill="url(#paint12_radial_382_2110)"/>
<path style="mix-blend-mode:color-dodge" d="M93.144 185.454C93.144 183.891 94.4133 182.623 95.9767 182.623C97.5402 182.623 98.8094 183.891 98.8094 185.454C98.8094 187.016 97.5402 188.284 95.9767 188.284C94.4133 188.284 93.144 187.016 93.144 185.454Z" fill="url(#paint13_radial_382_2110)"/>
<path style="mix-blend-mode:color-dodge" d="M139.719 185.892C139.719 184.329 140.988 183.061 142.552 183.061C144.115 183.061 145.385 184.329 145.385 185.892C145.385 187.454 144.115 188.723 142.552 188.723C140.988 188.723 139.719 187.454 139.719 185.892Z" fill="url(#paint14_radial_382_2110)"/>
<path style="mix-blend-mode:color-dodge" d="M192.894 189.743C192.894 188.181 194.163 186.912 195.727 186.912C197.29 186.912 198.559 188.181 198.559 189.743C198.559 191.306 197.29 192.574 195.727 192.574C194.163 192.574 192.894 191.306 192.894 189.743Z" fill="url(#paint15_radial_382_2110)"/>
<path style="mix-blend-mode:color-dodge" d="M284.077 208.372C284.077 206.81 285.346 205.541 286.91 205.541C288.473 205.541 289.742 206.81 289.742 208.372C289.742 209.935 288.473 211.203 286.91 211.203C285.346 211.203 284.077 209.935 284.077 208.372Z" fill="url(#paint16_radial_382_2110)"/>
<path style="mix-blend-mode:color-dodge" d="M268.927 225.969C268.927 224.406 270.196 223.138 271.759 223.138C273.323 223.138 274.592 224.406 274.592 225.969C274.592 227.531 273.323 228.8 271.759 228.8C270.196 228.8 268.927 227.531 268.927 225.969Z" fill="url(#paint17_radial_382_2110)"/>
<path style="mix-blend-mode:color-dodge" d="M213.831 234.231C213.831 232.669 215.1 231.4 216.663 231.4C218.227 231.4 219.496 232.669 219.496 234.231C219.496 235.794 218.227 237.062 216.663 237.062C215.1 237.062 213.831 235.794 213.831 234.231Z" fill="url(#paint18_radial_382_2110)"/>
<path style="mix-blend-mode:color-dodge" d="M266.596 104.089C266.596 102.526 267.865 101.258 269.429 101.258C270.992 101.258 272.262 102.526 272.262 104.089C272.262 105.651 270.992 106.919 269.429 106.919C267.865 106.919 266.596 105.651 266.596 104.089Z" fill="url(#paint19_radial_382_2110)"/>
<path style="mix-blend-mode:color-dodge" d="M148.477 6.49843C148.477 4.93593 149.746 3.66748 151.309 3.66748C152.873 3.66748 154.142 4.93593 154.142 6.49843C154.142 8.06093 152.873 9.32938 151.309 9.32938C149.746 9.32938 148.477 8.06093 148.477 6.49843Z" fill="url(#paint20_radial_382_2110)"/>
<path style="mix-blend-mode:color-dodge" d="M272.331 67.2399C272.331 65.6774 273.6 64.4089 275.164 64.4089C276.727 64.4089 277.996 65.6774 277.996 67.2399C277.996 68.8024 276.727 70.0708 275.164 70.0708C273.6 70.0708 272.331 68.8024 272.331 67.2399Z" fill="url(#paint21_radial_382_2110)"/>
<path style="mix-blend-mode:color-dodge" d="M104.452 5.10317C104.452 3.54067 105.721 2.27222 107.284 2.27222C108.848 2.27222 110.117 3.54067 110.117 5.10317C110.117 6.66567 108.848 7.93412 107.284 7.93412C105.721 7.93412 104.452 6.66567 104.452 5.10317Z" fill="url(#paint22_radial_382_2110)"/>
<path style="mix-blend-mode:color-dodge" d="M189.473 3.66762C189.473 2.10512 190.742 0.83667 192.305 0.83667C193.869 0.83667 195.138 2.10512 195.138 3.66762C195.138 5.23012 193.869 6.49857 192.305 6.49857C190.742 6.49857 189.473 5.23012 189.473 3.66762Z" fill="url(#paint23_radial_382_2110)"/>
<path style="mix-blend-mode:color-dodge" d="M246.9 34.7846C246.9 33.2221 248.169 31.9536 249.733 31.9536C251.296 31.9536 252.566 33.2221 252.566 34.7846C252.566 36.3471 251.296 37.6155 249.733 37.6155C248.169 37.6155 246.9 36.3471 246.9 34.7846Z" fill="url(#paint24_radial_382_2110)"/>
<path style="mix-blend-mode:color-dodge" d="M63.7152 38.4115C63.7152 36.849 64.9844 35.5806 66.5479 35.5806C68.1114 35.5806 69.3806 36.849 69.3806 38.4115C69.3806 39.974 68.1114 41.2425 66.5479 41.2425C64.9844 41.2425 63.7152 39.974 63.7152 38.4115Z" fill="url(#paint25_radial_382_2110)"/>
<path style="mix-blend-mode:color-dodge" d="M71.3595 20.5206C71.3595 18.9581 72.6287 17.6897 74.1922 17.6897C75.7557 17.6897 77.0249 18.9581 77.0249 20.5206C77.0249 22.0831 75.7557 23.3516 74.1922 23.3516C72.6287 23.3516 71.3595 22.0831 71.3595 20.5206Z" fill="url(#paint26_radial_382_2110)"/>
<path style="mix-blend-mode:color-dodge" d="M24.4845 65.9655C24.4845 64.403 25.7537 63.1345 27.3172 63.1345C28.8807 63.1345 30.1499 64.403 30.1499 65.9655C30.1499 67.528 28.8807 68.7964 27.3172 68.7964C25.7537 68.7964 24.4845 67.528 24.4845 65.9655Z" fill="url(#paint27_radial_382_2110)"/>
<path style="mix-blend-mode:color-dodge" d="M7.12476 192.055C7.12476 190.493 8.39399 189.224 9.95745 189.224C11.5209 189.224 12.7901 190.493 12.7901 192.055C12.7901 193.618 11.5209 194.886 9.95745 194.886C8.39399 194.886 7.12476 193.618 7.12476 192.055Z" fill="url(#paint28_radial_382_2110)"/>
<path style="mix-blend-mode:color-dodge" d="M74.2844 143.203C74.2844 141.64 75.5537 140.372 77.1171 140.372C78.6806 140.372 79.9498 141.64 79.9498 143.203C79.9498 144.765 78.6806 146.034 77.1171 146.034C75.5537 146.034 74.2844 144.765 74.2844 143.203Z" fill="url(#paint29_radial_382_2110)"/>
<path style="mix-blend-mode:color-dodge" d="M39.0806 131.717C39.0806 130.155 40.3498 128.886 41.9133 128.886C43.4767 128.886 44.746 130.155 44.746 131.717C44.746 133.28 43.4767 134.548 41.9133 134.548C40.3498 134.548 39.0806 133.28 39.0806 131.717Z" fill="url(#paint30_radial_382_2110)"/>
<path style="mix-blend-mode:color-dodge" d="M0.34021 144.206C0.34021 142.643 1.60944 141.375 3.17291 141.375C4.73637 141.375 6.0056 142.643 6.0056 144.206C6.0056 145.768 4.73637 147.037 3.17291 147.037C1.60944 147.037 0.34021 145.768 0.34021 144.206Z" fill="url(#paint31_radial_382_2110)"/>
<path style="mix-blend-mode:color-dodge" d="M5.09375 118.958C5.09375 117.396 6.36298 116.127 7.92645 116.127C9.48991 116.127 10.7591 117.396 10.7591 118.958C10.7591 120.521 9.48991 121.789 7.92645 121.789C6.36298 121.789 5.09375 120.521 5.09375 118.958Z" fill="url(#paint32_radial_382_2110)"/>
<path style="mix-blend-mode:color-dodge" d="M21.9285 116.127C21.9285 114.565 23.1977 113.296 24.7612 113.296C26.3246 113.296 27.5939 114.565 27.5939 116.127C27.5939 117.69 26.3246 118.958 24.7612 118.958C23.1977 118.958 21.9285 117.69 21.9285 116.127Z" fill="url(#paint33_radial_382_2110)"/>
<path style="mix-blend-mode:color-dodge" d="M13.1881 208.147C13.1881 206.585 14.4573 205.316 16.0208 205.316C17.5843 205.316 18.8535 206.585 18.8535 208.147C18.8535 209.71 17.5843 210.978 16.0208 210.978C14.4573 210.978 13.1881 209.71 13.1881 208.147Z" fill="url(#paint34_radial_382_2110)"/>
<path style="mix-blend-mode:color-dodge" d="M27.3169 233.009C27.3169 231.446 28.5861 230.178 30.1496 230.178C31.7131 230.178 32.9823 231.446 32.9823 233.009C32.9823 234.571 31.7131 235.84 30.1496 235.84C28.5861 235.84 27.3169 234.571 27.3169 233.009Z" fill="url(#paint35_radial_382_2110)"/>
<path style="mix-blend-mode:color-dodge" d="M222.237 93.9694C222.237 92.4069 223.506 91.1384 225.069 91.1384C226.633 91.1384 227.902 92.4069 227.902 93.9694C227.902 95.5319 226.633 96.8003 225.069 96.8003C223.506 96.8003 222.237 95.5319 222.237 93.9694Z" fill="url(#paint36_radial_382_2110)"/>
<path style="mix-blend-mode:color-dodge" d="M113.285 31.9076C113.285 30.3451 114.554 29.0767 116.117 29.0767C117.681 29.0767 118.95 30.3451 118.95 31.9076C118.95 33.4701 117.681 34.7386 116.117 34.7386C114.554 34.7386 113.285 33.4701 113.285 31.9076Z" fill="url(#paint37_radial_382_2110)"/>
<path style="mix-blend-mode:color-dodge" d="M247.852 258.268C247.852 256.706 249.121 255.438 250.685 255.438C252.248 255.438 253.517 256.706 253.517 258.268C253.517 259.831 252.248 261.099 250.685 261.099C249.121 261.099 247.852 259.831 247.852 258.268Z" fill="url(#paint38_radial_382_2110)"/>
<path style="mix-blend-mode:color-dodge" d="M214.31 279.705C214.31 278.143 215.579 276.874 217.142 276.874C218.706 276.874 219.975 278.143 219.975 279.705C219.975 281.268 218.706 282.536 217.142 282.536C215.579 282.536 214.31 281.268 214.31 279.705Z" fill="url(#paint39_radial_382_2110)"/>
<defs>
<radialGradient id="paint0_radial_382_2110" cx="0" cy="0" r="1" gradientUnits="userSpaceOnUse" gradientTransform="translate(105.654 227.915) scale(4.95001 4.94695)">
<stop stop-color="#FFCE5F"/>
<stop offset="0.03" stop-color="#F7C75C"/>
<stop offset="0.31" stop-color="#A0813B"/>
<stop offset="0.55" stop-color="#5B4A22"/>
<stop offset="0.76" stop-color="#2A210F"/>
<stop offset="0.91" stop-color="#0B0904"/>
<stop offset="1"/>
</radialGradient>
<radialGradient id="paint1_radial_382_2110" cx="0" cy="0" r="1" gradientUnits="userSpaceOnUse" gradientTransform="translate(178.252 58.4067) scale(4.95001 4.94696)">
<stop stop-color="#FFCE5F"/>
<stop offset="0.03" stop-color="#F7C75C"/>
<stop offset="0.31" stop-color="#A0813B"/>
<stop offset="0.55" stop-color="#5B4A22"/>
<stop offset="0.76" stop-color="#2A210F"/>
<stop offset="0.91" stop-color="#0B0904"/>
<stop offset="1"/>
</radialGradient>
<radialGradient id="paint2_radial_382_2110" cx="0" cy="0" r="1" gradientUnits="userSpaceOnUse" gradientTransform="translate(29.7053 163.065) scale(4.95001 4.94696)">
<stop stop-color="#FFCE5F"/>
<stop offset="0.03" stop-color="#F7C75C"/>
<stop offset="0.31" stop-color="#A0813B"/>
<stop offset="0.55" stop-color="#5B4A22"/>
<stop offset="0.76" stop-color="#2A210F"/>
<stop offset="0.91" stop-color="#0B0904"/>
<stop offset="1"/>
</radialGradient>
<radialGradient id="paint3_radial_382_2110" cx="0" cy="0" r="1" gradientUnits="userSpaceOnUse" gradientTransform="translate(180.548 274.401) scale(2.83269 2.83094)">
<stop stop-color="#FFCE5F"/>
<stop offset="0.03" stop-color="#F7C75C"/>
<stop offset="0.31" stop-color="#A0813B"/>
<stop offset="0.55" stop-color="#5B4A22"/>
<stop offset="0.76" stop-color="#2A210F"/>
<stop offset="0.91" stop-color="#0B0904"/>
<stop offset="1"/>
</radialGradient>
<radialGradient id="paint4_radial_382_2110" cx="0" cy="0" r="1" gradientUnits="userSpaceOnUse" gradientTransform="translate(166.033 295.169) scale(2.83269 2.83094)">
<stop stop-color="#FFCE5F"/>
<stop offset="0.03" stop-color="#F7C75C"/>
<stop offset="0.31" stop-color="#A0813B"/>
<stop offset="0.55" stop-color="#5B4A22"/>
<stop offset="0.76" stop-color="#2A210F"/>
<stop offset="0.91" stop-color="#0B0904"/>
<stop offset="1"/>
</radialGradient>
<radialGradient id="paint5_radial_382_2110" cx="0" cy="0" r="1" gradientUnits="userSpaceOnUse" gradientTransform="translate(109.183 288.319) scale(2.8327 2.83095)">
<stop stop-color="#FFCE5F"/>
<stop offset="0.03" stop-color="#F7C75C"/>
<stop offset="0.31" stop-color="#A0813B"/>
<stop offset="0.55" stop-color="#5B4A22"/>
<stop offset="0.76" stop-color="#2A210F"/>
<stop offset="0.91" stop-color="#0B0904"/>
<stop offset="1"/>
</radialGradient>
<radialGradient id="paint6_radial_382_2110" cx="0" cy="0" r="1" gradientUnits="userSpaceOnUse" gradientTransform="translate(32.717 72.7865) scale(2.8327 2.83095)">
<stop stop-color="#FFCE5F"/>
<stop offset="0.03" stop-color="#F7C75C"/>
<stop offset="0.31" stop-color="#A0813B"/>
<stop offset="0.55" stop-color="#5B4A22"/>
<stop offset="0.76" stop-color="#2A210F"/>
<stop offset="0.91" stop-color="#0B0904"/>
<stop offset="1"/>
</radialGradient>
<radialGradient id="paint7_radial_382_2110" cx="0" cy="0" r="1" gradientUnits="userSpaceOnUse" gradientTransform="translate(55.5112 217.574) scale(2.8327 2.83094)">
<stop stop-color="#FFCE5F"/>
<stop offset="0.03" stop-color="#F7C75C"/>
<stop offset="0.31" stop-color="#A0813B"/>
<stop offset="0.55" stop-color="#5B4A22"/>
<stop offset="0.76" stop-color="#2A210F"/>
<stop offset="0.91" stop-color="#0B0904"/>
<stop offset="1"/>
</radialGradient>
<radialGradient id="paint8_radial_382_2110" cx="0" cy="0" r="1" gradientUnits="userSpaceOnUse" gradientTransform="translate(230.169 255.628) scale(2.8327 2.83094)">
<stop stop-color="#FFCE5F"/>
<stop offset="0.03" stop-color="#F7C75C"/>
<stop offset="0.31" stop-color="#A0813B"/>
<stop offset="0.55" stop-color="#5B4A22"/>
<stop offset="0.76" stop-color="#2A210F"/>
<stop offset="0.91" stop-color="#0B0904"/>
<stop offset="1"/>
</radialGradient>
<radialGradient id="paint9_radial_382_2110" cx="0" cy="0" r="1" gradientUnits="userSpaceOnUse" gradientTransform="translate(235.846 193.26) scale(2.8327 2.83095)">
<stop stop-color="#FFCE5F"/>
<stop offset="0.03" stop-color="#F7C75C"/>
<stop offset="0.31" stop-color="#A0813B"/>
<stop offset="0.55" stop-color="#5B4A22"/>
<stop offset="0.76" stop-color="#2A210F"/>
<stop offset="0.91" stop-color="#0B0904"/>
<stop offset="1"/>
</radialGradient>
<radialGradient id="paint10_radial_382_2110" cx="0" cy="0" r="1" gradientUnits="userSpaceOnUse" gradientTransform="translate(264.185 217.886) scale(2.83269 2.83095)">
<stop stop-color="#FFCE5F"/>
<stop offset="0.03" stop-color="#F7C75C"/>
<stop offset="0.31" stop-color="#A0813B"/>
<stop offset="0.55" stop-color="#5B4A22"/>
<stop offset="0.76" stop-color="#2A210F"/>
<stop offset="0.91" stop-color="#0B0904"/>
<stop offset="1"/>
</radialGradient>
<radialGradient id="paint11_radial_382_2110" cx="0" cy="0" r="1" gradientUnits="userSpaceOnUse" gradientTransform="translate(115.546 262.259) scale(2.8327 2.83094)">
<stop stop-color="#FFCE5F"/>
<stop offset="0.03" stop-color="#F7C75C"/>
<stop offset="0.31" stop-color="#A0813B"/>
<stop offset="0.55" stop-color="#5B4A22"/>
<stop offset="0.76" stop-color="#2A210F"/>
<stop offset="0.91" stop-color="#0B0904"/>
<stop offset="1"/>
</radialGradient>
<radialGradient id="paint12_radial_382_2110" cx="0" cy="0" r="1" gradientUnits="userSpaceOnUse" gradientTransform="translate(74.198 255.437) scale(2.8327 2.83095)">
<stop stop-color="#FFCE5F"/>
<stop offset="0.03" stop-color="#F7C75C"/>
<stop offset="0.31" stop-color="#A0813B"/>
<stop offset="0.55" stop-color="#5B4A22"/>
<stop offset="0.76" stop-color="#2A210F"/>
<stop offset="0.91" stop-color="#0B0904"/>
<stop offset="1"/>
</radialGradient>
<radialGradient id="paint13_radial_382_2110" cx="0" cy="0" r="1" gradientUnits="userSpaceOnUse" gradientTransform="translate(95.9767 185.454) scale(2.83269 2.83095)">
<stop stop-color="#FFCE5F"/>
<stop offset="0.03" stop-color="#F7C75C"/>
<stop offset="0.31" stop-color="#A0813B"/>
<stop offset="0.55" stop-color="#5B4A22"/>
<stop offset="0.76" stop-color="#2A210F"/>
<stop offset="0.91" stop-color="#0B0904"/>
<stop offset="1"/>
</radialGradient>
<radialGradient id="paint14_radial_382_2110" cx="0" cy="0" r="1" gradientUnits="userSpaceOnUse" gradientTransform="translate(142.552 185.892) scale(2.8327 2.83095)">
<stop stop-color="#FFCE5F"/>
<stop offset="0.03" stop-color="#F7C75C"/>
<stop offset="0.31" stop-color="#A0813B"/>
<stop offset="0.55" stop-color="#5B4A22"/>
<stop offset="0.76" stop-color="#2A210F"/>
<stop offset="0.91" stop-color="#0B0904"/>
<stop offset="1"/>
</radialGradient>
<radialGradient id="paint15_radial_382_2110" cx="0" cy="0" r="1" gradientUnits="userSpaceOnUse" gradientTransform="translate(195.727 189.743) scale(2.83269 2.83095)">
<stop stop-color="#FFCE5F"/>
<stop offset="0.03" stop-color="#F7C75C"/>
<stop offset="0.31" stop-color="#A0813B"/>
<stop offset="0.55" stop-color="#5B4A22"/>
<stop offset="0.76" stop-color="#2A210F"/>
<stop offset="0.91" stop-color="#0B0904"/>
<stop offset="1"/>
</radialGradient>
<radialGradient id="paint16_radial_382_2110" cx="0" cy="0" r="1" gradientUnits="userSpaceOnUse" gradientTransform="translate(286.91 208.372) scale(2.8327 2.83095)">
<stop stop-color="#FFCE5F"/>
<stop offset="0.03" stop-color="#F7C75C"/>
<stop offset="0.31" stop-color="#A0813B"/>
<stop offset="0.55" stop-color="#5B4A22"/>
<stop offset="0.76" stop-color="#2A210F"/>
<stop offset="0.91" stop-color="#0B0904"/>
<stop offset="1"/>
</radialGradient>
<radialGradient id="paint17_radial_382_2110" cx="0" cy="0" r="1" gradientUnits="userSpaceOnUse" gradientTransform="translate(271.759 225.963) scale(2.8327 2.83094)">
<stop stop-color="#FFCE5F"/>
<stop offset="0.03" stop-color="#F7C75C"/>
<stop offset="0.31" stop-color="#A0813B"/>
<stop offset="0.55" stop-color="#5B4A22"/>
<stop offset="0.76" stop-color="#2A210F"/>
<stop offset="0.91" stop-color="#0B0904"/>
<stop offset="1"/>
</radialGradient>
<radialGradient id="paint18_radial_382_2110" cx="0" cy="0" r="1" gradientUnits="userSpaceOnUse" gradientTransform="translate(216.663 234.231) scale(2.8327 2.83095)">
<stop stop-color="#FFCE5F"/>
<stop offset="0.03" stop-color="#F7C75C"/>
<stop offset="0.31" stop-color="#A0813B"/>
<stop offset="0.55" stop-color="#5B4A22"/>
<stop offset="0.76" stop-color="#2A210F"/>
<stop offset="0.91" stop-color="#0B0904"/>
<stop offset="1"/>
</radialGradient>
<radialGradient id="paint19_radial_382_2110" cx="0" cy="0" r="1" gradientUnits="userSpaceOnUse" gradientTransform="translate(269.429 104.089) scale(2.83269 2.83095)">
<stop stop-color="#FFCE5F"/>
<stop offset="0.03" stop-color="#F7C75C"/>
<stop offset="0.31" stop-color="#A0813B"/>
<stop offset="0.55" stop-color="#5B4A22"/>
<stop offset="0.76" stop-color="#2A210F"/>
<stop offset="0.91" stop-color="#0B0904"/>
<stop offset="1"/>
</radialGradient>
<radialGradient id="paint20_radial_382_2110" cx="0" cy="0" r="1" gradientUnits="userSpaceOnUse" gradientTransform="translate(151.309 6.49843) scale(2.8327 2.83095)">
<stop stop-color="#FFCE5F"/>
<stop offset="0.03" stop-color="#F7C75C"/>
<stop offset="0.31" stop-color="#A0813B"/>
<stop offset="0.55" stop-color="#5B4A22"/>
<stop offset="0.76" stop-color="#2A210F"/>
<stop offset="0.91" stop-color="#0B0904"/>
<stop offset="1"/>
</radialGradient>
<radialGradient id="paint21_radial_382_2110" cx="0" cy="0" r="1" gradientUnits="userSpaceOnUse" gradientTransform="translate(275.164 67.2399) scale(2.83269 2.83095)">
<stop stop-color="#FFCE5F"/>
<stop offset="0.03" stop-color="#F7C75C"/>
<stop offset="0.31" stop-color="#A0813B"/>
<stop offset="0.55" stop-color="#5B4A22"/>
<stop offset="0.76" stop-color="#2A210F"/>
<stop offset="0.91" stop-color="#0B0904"/>
<stop offset="1"/>
</radialGradient>
<radialGradient id="paint22_radial_382_2110" cx="0" cy="0" r="1" gradientUnits="userSpaceOnUse" gradientTransform="translate(107.284 5.10317) scale(2.83269 2.83095)">
<stop stop-color="#FFCE5F"/>
<stop offset="0.03" stop-color="#F7C75C"/>
<stop offset="0.31" stop-color="#A0813B"/>
<stop offset="0.55" stop-color="#5B4A22"/>
<stop offset="0.76" stop-color="#2A210F"/>
<stop offset="0.91" stop-color="#0B0904"/>
<stop offset="1"/>
</radialGradient>
<radialGradient id="paint23_radial_382_2110" cx="0" cy="0" r="1" gradientUnits="userSpaceOnUse" gradientTransform="translate(192.305 3.66762) scale(2.8327 2.83095)">
<stop stop-color="#FFCE5F"/>
<stop offset="0.03" stop-color="#F7C75C"/>
<stop offset="0.31" stop-color="#A0813B"/>
<stop offset="0.55" stop-color="#5B4A22"/>
<stop offset="0.76" stop-color="#2A210F"/>
<stop offset="0.91" stop-color="#0B0904"/>
<stop offset="1"/>
</radialGradient>
<radialGradient id="paint24_radial_382_2110" cx="0" cy="0" r="1" gradientUnits="userSpaceOnUse" gradientTransform="translate(249.733 34.7846) scale(2.8327 2.83095)">
<stop stop-color="#FFCE5F"/>
<stop offset="0.03" stop-color="#F7C75C"/>
<stop offset="0.31" stop-color="#A0813B"/>
<stop offset="0.55" stop-color="#5B4A22"/>
<stop offset="0.76" stop-color="#2A210F"/>
<stop offset="0.91" stop-color="#0B0904"/>
<stop offset="1"/>
</radialGradient>
<radialGradient id="paint25_radial_382_2110" cx="0" cy="0" r="1" gradientUnits="userSpaceOnUse" gradientTransform="translate(66.5479 38.4115) scale(2.8327 2.83095)">
<stop stop-color="#FFCE5F"/>
<stop offset="0.03" stop-color="#F7C75C"/>
<stop offset="0.31" stop-color="#A0813B"/>
<stop offset="0.55" stop-color="#5B4A22"/>
<stop offset="0.76" stop-color="#2A210F"/>
<stop offset="0.91" stop-color="#0B0904"/>
<stop offset="1"/>
</radialGradient>
<radialGradient id="paint26_radial_382_2110" cx="0" cy="0" r="1" gradientUnits="userSpaceOnUse" gradientTransform="translate(74.198 20.5206) scale(2.8327 2.83095)">
<stop stop-color="#FFCE5F"/>
<stop offset="0.03" stop-color="#F7C75C"/>
<stop offset="0.31" stop-color="#A0813B"/>
<stop offset="0.55" stop-color="#5B4A22"/>
<stop offset="0.76" stop-color="#2A210F"/>
<stop offset="0.91" stop-color="#0B0904"/>
<stop offset="1"/>
</radialGradient>
<radialGradient id="paint27_radial_382_2110" cx="0" cy="0" r="1" gradientUnits="userSpaceOnUse" gradientTransform="translate(27.3172 65.9655) scale(2.8327 2.83095)">
<stop stop-color="#FFCE5F"/>
<stop offset="0.03" stop-color="#F7C75C"/>
<stop offset="0.31" stop-color="#A0813B"/>
<stop offset="0.55" stop-color="#5B4A22"/>
<stop offset="0.76" stop-color="#2A210F"/>
<stop offset="0.91" stop-color="#0B0904"/>
<stop offset="1"/>
</radialGradient>
<radialGradient id="paint28_radial_382_2110" cx="0" cy="0" r="1" gradientUnits="userSpaceOnUse" gradientTransform="translate(9.95745 192.055) scale(2.8327 2.83095)">
<stop stop-color="#FFCE5F"/>
<stop offset="0.03" stop-color="#F7C75C"/>
<stop offset="0.31" stop-color="#A0813B"/>
<stop offset="0.55" stop-color="#5B4A22"/>
<stop offset="0.76" stop-color="#2A210F"/>
<stop offset="0.91" stop-color="#0B0904"/>
<stop offset="1"/>
</radialGradient>
<radialGradient id="paint29_radial_382_2110" cx="0" cy="0" r="1" gradientUnits="userSpaceOnUse" gradientTransform="translate(77.1171 143.203) scale(2.8327 2.83095)">
<stop stop-color="#FFCE5F"/>
<stop offset="0.03" stop-color="#F7C75C"/>
<stop offset="0.31" stop-color="#A0813B"/>
<stop offset="0.55" stop-color="#5B4A22"/>
<stop offset="0.76" stop-color="#2A210F"/>
<stop offset="0.91" stop-color="#0B0904"/>
<stop offset="1"/>
</radialGradient>
<radialGradient id="paint30_radial_382_2110" cx="0" cy="0" r="1" gradientUnits="userSpaceOnUse" gradientTransform="translate(41.9133 131.717) scale(2.8327 2.83095)">
<stop stop-color="#FFCE5F"/>
<stop offset="0.03" stop-color="#F7C75C"/>
<stop offset="0.31" stop-color="#A0813B"/>
<stop offset="0.55" stop-color="#5B4A22"/>
<stop offset="0.76" stop-color="#2A210F"/>
<stop offset="0.91" stop-color="#0B0904"/>
<stop offset="1"/>
</radialGradient>
<radialGradient id="paint31_radial_382_2110" cx="0" cy="0" r="1" gradientUnits="userSpaceOnUse" gradientTransform="translate(3.17291 144.211) scale(2.8327 2.83095)">
<stop stop-color="#FFCE5F"/>
<stop offset="0.03" stop-color="#F7C75C"/>
<stop offset="0.31" stop-color="#A0813B"/>
<stop offset="0.55" stop-color="#5B4A22"/>
<stop offset="0.76" stop-color="#2A210F"/>
<stop offset="0.91" stop-color="#0B0904"/>
<stop offset="1"/>
</radialGradient>
<radialGradient id="paint32_radial_382_2110" cx="0" cy="0" r="1" gradientUnits="userSpaceOnUse" gradientTransform="translate(7.92645 118.958) scale(2.8327 2.83095)">
<stop stop-color="#FFCE5F"/>
<stop offset="0.03" stop-color="#F7C75C"/>
<stop offset="0.31" stop-color="#A0813B"/>
<stop offset="0.55" stop-color="#5B4A22"/>
<stop offset="0.76" stop-color="#2A210F"/>
<stop offset="0.91" stop-color="#0B0904"/>
<stop offset="1"/>
</radialGradient>
<radialGradient id="paint33_radial_382_2110" cx="0" cy="0" r="1" gradientUnits="userSpaceOnUse" gradientTransform="translate(24.7612 116.127) scale(2.8327 2.83095)">
<stop stop-color="#FFCE5F"/>
<stop offset="0.03" stop-color="#F7C75C"/>
<stop offset="0.31" stop-color="#A0813B"/>
<stop offset="0.55" stop-color="#5B4A22"/>
<stop offset="0.76" stop-color="#2A210F"/>
<stop offset="0.91" stop-color="#0B0904"/>
<stop offset="1"/>
</radialGradient>
<radialGradient id="paint34_radial_382_2110" cx="0" cy="0" r="1" gradientUnits="userSpaceOnUse" gradientTransform="translate(16.0208 208.147) scale(2.8327 2.83095)">
<stop stop-color="#FFCE5F"/>
<stop offset="0.03" stop-color="#F7C75C"/>
<stop offset="0.31" stop-color="#A0813B"/>
<stop offset="0.55" stop-color="#5B4A22"/>
<stop offset="0.76" stop-color="#2A210F"/>
<stop offset="0.91" stop-color="#0B0904"/>
<stop offset="1"/>
</radialGradient>
<radialGradient id="paint35_radial_382_2110" cx="0" cy="0" r="1" gradientUnits="userSpaceOnUse" gradientTransform="translate(30.1496 233.009) scale(2.8327 2.83095)">
<stop stop-color="#FFCE5F"/>
<stop offset="0.03" stop-color="#F7C75C"/>
<stop offset="0.31" stop-color="#A0813B"/>
<stop offset="0.55" stop-color="#5B4A22"/>
<stop offset="0.76" stop-color="#2A210F"/>
<stop offset="0.91" stop-color="#0B0904"/>
<stop offset="1"/>
</radialGradient>
<radialGradient id="paint36_radial_382_2110" cx="0" cy="0" r="1" gradientUnits="userSpaceOnUse" gradientTransform="translate(225.075 93.9694) scale(2.8327 2.83095)">
<stop stop-color="#FFCE5F"/>
<stop offset="0.03" stop-color="#F7C75C"/>
<stop offset="0.31" stop-color="#A0813B"/>
<stop offset="0.55" stop-color="#5B4A22"/>
<stop offset="0.76" stop-color="#2A210F"/>
<stop offset="0.91" stop-color="#0B0904"/>
<stop offset="1"/>
</radialGradient>
<radialGradient id="paint37_radial_382_2110" cx="0" cy="0" r="1" gradientUnits="userSpaceOnUse" gradientTransform="translate(116.117 31.9076) scale(2.83269 2.83095)">
<stop stop-color="#FFCE5F"/>
<stop offset="0.03" stop-color="#F7C75C"/>
<stop offset="0.31" stop-color="#A0813B"/>
<stop offset="0.55" stop-color="#5B4A22"/>
<stop offset="0.76" stop-color="#2A210F"/>
<stop offset="0.91" stop-color="#0B0904"/>
<stop offset="1"/>
</radialGradient>
<radialGradient id="paint38_radial_382_2110" cx="0" cy="0" r="1" gradientUnits="userSpaceOnUse" gradientTransform="translate(250.685 258.268) scale(2.8327 2.83095)">
<stop stop-color="#FFCE5F"/>
<stop offset="0.03" stop-color="#F7C75C"/>
<stop offset="0.31" stop-color="#A0813B"/>
<stop offset="0.55" stop-color="#5B4A22"/>
<stop offset="0.76" stop-color="#2A210F"/>
<stop offset="0.91" stop-color="#0B0904"/>
<stop offset="1"/>
</radialGradient>
<radialGradient id="paint39_radial_382_2110" cx="0" cy="0" r="1" gradientUnits="userSpaceOnUse" gradientTransform="translate(217.142 279.705) scale(2.8327 2.83095)">
<stop stop-color="#FFCE5F"/>
<stop offset="0.03" stop-color="#F7C75C"/>
<stop offset="0.31" stop-color="#A0813B"/>
<stop offset="0.55" stop-color="#5B4A22"/>
<stop offset="0.76" stop-color="#2A210F"/>
<stop offset="0.91" stop-color="#0B0904"/>
<stop offset="1"/>
</radialGradient>
</defs>
</svg>
