<svg width="297" height="298" viewBox="0 0 297 298" fill="none" xmlns="http://www.w3.org/2000/svg">
<g opacity="0.74">
<path d="M296.66 146.973L292.212 115.325V115.308L292.102 114.887L292.05 114.685L292.039 114.645L273.444 70.0413C273.456 70.0067 273.462 69.9663 273.444 69.9317L273.202 69.3782C273.225 69.3206 273.202 69.2571 273.162 69.2168L273.127 69.1879L273.012 68.8593C273 68.8189 272.971 68.7901 272.931 68.7728L266.648 57.6335L266.637 57.6162L266.562 57.5124L266.544 57.4836L264.075 54.4278L262.915 53.0152V53.0094H262.91V52.9979L262.887 52.9691L261.502 51.3662L258.854 48.3911H258.842V48.3854L257.867 47.3302L257.158 46.5749L256.725 46.1252L254.573 43.917L254.55 43.8939L254.515 43.8535L253.881 43.2135L253.148 42.4928L252.335 41.7145L250.638 40.1116L249.831 39.3563L248.481 38.1282L247.863 37.5747L247.737 37.4594L245.389 35.4241H245.383L243.767 34.0634L243.698 34.0058L241.615 32.3164L240.208 31.2152L238.806 30.1312L238.788 30.1139L238.719 30.0563L238.713 30.0447L236.925 28.7244H236.919L234.288 26.839L233.613 26.3605L232.512 25.5994L231.294 24.7864L230.913 24.5327L228.196 22.78L225.369 21.0503H225.363L222.519 19.384H222.513L220.529 18.2885L218.602 17.2449L218.492 17.1873L218.296 17.0835L218.244 17.0546L215.902 15.8496L215.498 15.6478C215.498 15.6478 215.487 15.6421 215.481 15.6363L212.406 14.143H212.4L211.598 13.7682L209.729 12.9149H209.723L207.479 11.9405L205.933 11.2774H205.927L204.444 10.672L204.237 10.5913H204.231L204.173 10.5625H204.162L203.66 10.3607L203.446 10.2742L203.285 10.2108L202.662 9.96862L201.537 9.54196L199.044 8.61369L195.317 7.34524L191.596 6.18057L191.296 6.08832L191.019 6.0076L189.335 5.53481L187.292 4.97554H187.286L185.573 4.53158L184.385 4.23177L184.281 4.20294L183.912 4.11069L183.779 4.07609L182.515 3.78204L180.79 3.38998L180.71 3.37268H180.686L178.142 2.848H178.136L177.444 2.71539H177.438L172.973 1.91973H172.967L171.981 1.75252L167.798 1.16442H167.781H167.758H167.752L167.636 1.14713L164.486 0.783889H164.481L162.502 0.593621L161.106 0.472542C161.088 0.46101 161.071 0.455245 161.048 0.455245L160.511 0.420651H160.471H160.465L157.673 0.230383H157.621H157.61L154.794 0.0977725H154.788L154.431 0.0862411L151.2 -0.000244141H148.321L145.944 0.0285843H145.875H145.817H145.777H145.713L144.883 0.0458813H144.738L143.013 0.11507L141.335 0.190023H141.294H141.248H141.242L137.798 0.628215C137.798 0.628215 137.786 0.628215 137.781 0.628215H137.74V0.639747L137.377 0.708935L137.261 0.731998L136.846 0.824248L136.8 0.83578H136.794L135.75 1.07794H135.744L135.652 1.101L135.3 1.19325H135.294L133.933 1.55649L133.898 1.53919C133.898 1.53919 133.858 1.52766 133.84 1.52766C133.794 1.52766 133.748 1.55072 133.719 1.59685L113.711 4.80257H113.706L113.481 4.85446L113.331 4.88905H113.319L105.79 6.72831L105.767 6.69371H105.629L105.421 6.82056L105.323 6.84362C105.283 6.85515 105.254 6.87822 105.236 6.90704L71.6594 22.2495L70.7883 22.2149L70.7075 22.238L70.5691 22.3245L68.5037 23.6275L68.3825 23.7025L66.1037 25.2073H66.0979L65.821 25.3976L63.1498 27.2368L63.0575 27.306L61.6267 28.3439L61.5748 28.3842L61.4767 28.4534L59.8498 29.6527L58.044 31.0249H58.0383V31.0307L58.0267 31.0422L55.8402 32.7661L55.5517 33.0025L53.1056 35.0147L53.0883 35.0263L51.0863 36.7387L50.7056 37.0789L48.3575 39.1833L48.1844 39.3505C48.1613 39.3505 48.1325 39.3678 48.1152 39.3851L47.1748 40.2846L47.1171 40.3365H47.1113L45.4786 41.9047L43.8402 43.5018H43.8344L41.9133 45.4449L41.6594 45.7159L39.5421 47.9529L39.5306 47.9645L39.3286 48.1778L37.8575 49.798L37.4652 50.2477L35.4459 52.5655L35.4171 52.6001L33.6921 54.6584L33.4844 54.9179L31.5748 57.3049L31.5517 57.3395L30.3402 58.925L30.2017 59.1038L30.1094 59.2248L29.1748 60.4702L27.9286 62.1711C27.9286 62.1711 27.9171 62.1826 27.9171 62.1884L27.6575 62.5574L27.5825 62.6612L25.9094 65.0712L25.4767 65.7055C25.4652 65.717 25.4536 65.7285 25.4421 65.7401L25.2228 66.0687L25.1882 66.1206C25.1882 66.1206 25.1767 66.1379 25.1767 66.1437L24.4728 67.1988L24.4555 67.2218L24.4382 67.2449L23.4113 68.8478L23.2613 69.0842L23.2036 69.1764L22.3786 70.4852L21.2594 72.3072V72.3187L19.8459 74.7288L19.7363 74.9248L18.2594 77.5539L18.2478 77.5713L16.9382 80.0274L16.8286 80.235L15.4613 82.9276V82.9391L14.3594 85.2165L14.1574 85.6547L12.894 88.405L12.3921 89.535L11.9305 90.6075L11.6536 91.282L10.4709 94.1706L10.1594 94.9663L9.79591 95.9061L9.35744 97.0881L8.30167 100.011V100.023L7.42475 102.594L7.30359 102.975L6.37475 105.921L6.21898 106.452L5.62475 108.51L5.51513 108.913L4.71321 111.894V111.912L4.05551 114.57L3.98051 114.91L3.29974 117.925V117.943V117.948L2.80936 120.405L2.77474 120.577V120.595L2.52666 121.886L2.1459 123.997V124.014L1.71897 126.689L1.66705 127.075L1.24013 130.137L1.19397 130.512V130.546L0.945894 132.697L0.888202 133.291L0.59974 136.306V136.318L0.524739 137.194C0.524739 137.2 0.524739 137.206 0.524739 137.217L0.432432 138.44L0.374739 139.42L0.207431 142.527V142.539L0.115124 145.255L0.109354 145.658L0.0689697 148.783V149.135L0.0920467 151.539L0.103585 151.914L0.184354 154.814V154.837L0.403585 158.983V159L0.51897 160.643V160.655L0.542047 160.972C0.542047 160.972 0.542047 160.983 0.542047 160.989V161.012V161.03L0.59974 161.744V161.796L0.622817 162.021V162.033L0.801663 163.849L0.853586 164.391L1.10166 166.755L1.22282 167.798L1.55166 170.266L1.58628 170.508L2.04205 173.46L2.05936 173.564V173.581L2.54974 176.366L2.61897 176.724L3.19013 179.624C3.19013 179.624 3.19013 179.635 3.19013 179.641V179.653V179.664V179.676L3.65167 181.769L4.57474 185.678L4.88051 186.889L5.23244 188.203L5.36513 188.676L6.21321 191.657V191.668L7.56898 195.946L7.82283 196.725V196.736L7.8286 196.759V196.771V196.782L7.88629 196.955L7.89783 196.99L8.09398 197.572L9.07475 200.334L9.13244 200.501L10.2401 203.419C10.2401 203.419 10.2401 203.43 10.2459 203.436L11.0998 205.535L11.1055 205.558L11.1748 205.737L11.7978 207.23L12.6344 209.19V209.196L12.9401 209.876C12.9401 209.876 12.9459 209.905 12.9517 209.922L13.1017 210.245L13.1363 210.332L14.1344 212.465L15.1786 214.668L15.1901 214.691L16.4363 217.17V217.181L16.8805 218.023L17.9421 220.03C17.9421 220.03 17.9421 220.041 17.9536 220.047C17.9536 220.053 17.9594 220.059 17.9651 220.064L19.3036 222.48L19.4132 222.682L20.919 225.271L20.9363 225.3V225.311H20.9421V225.323L22.4594 227.796L22.5517 227.946L24.1267 230.419V230.425L26.1921 233.481C26.1921 233.481 26.2036 233.51 26.2094 233.521L26.4228 233.821L26.4459 233.85L27.069 234.744L27.369 235.165L27.5479 235.418L27.8882 235.903L29.094 237.557L29.3421 237.886L31.1767 240.302V240.313L32.844 242.418L33.0805 242.712L35.0248 245.064L35.8209 245.998L36.7325 247.048L37.0382 247.388L39.0921 249.677L39.7036 250.34L41.0652 251.787L41.2094 251.937L43.3556 254.134L43.3902 254.174L45.3113 256.071L45.594 256.342L47.8613 258.481L47.8786 258.498L47.919 258.539H47.9248V258.544L50.094 260.505H50.0998V260.511L50.2152 260.609L52.5863 262.667H52.5921L52.6556 262.725L54.1498 263.964L55.9037 265.394L57.4844 266.651C57.4902 266.657 57.5017 266.663 57.5075 266.668L59.746 268.375L60.046 268.594L62.6248 270.474L62.6306 270.479L65.296 272.33L67.3325 273.691L68.2614 274.296L68.3652 274.36L70.9037 275.957L71.0191 276.026L72.5941 276.972L75.4441 278.649H75.4498L76.8633 279.445L77.3191 279.693L78.3056 280.223L78.6748 280.419L78.8133 280.489C78.8133 280.489 78.8248 280.494 78.8306 280.5L79.7941 280.996L80.296 281.25L81.421 281.809L81.7556 281.976L83.221 282.674L83.5902 282.841L84.7037 283.348L85.2229 283.579L86.221 284.017L86.7633 284.248L87.8191 284.692L88.2345 284.865L88.2575 284.876L90.0806 285.603L90.496 285.764L92.1922 286.399L92.4056 286.479H92.4114L94.2806 287.137L94.7249 287.286L96.6402 287.915L98.2153 288.405L98.7345 288.561L99.8018 288.872L100.413 289.045L101.394 289.316L102.046 289.489L102.998 289.737L103.661 289.904L104.625 290.14L105.271 290.296L106.2 290.509L106.361 290.654L106.5 290.682L106.511 290.671L107.602 291.288C107.602 291.288 107.648 291.305 107.671 291.305C107.717 291.305 107.758 291.282 107.786 291.247C107.827 291.19 107.821 291.103 107.763 291.057L107.463 290.786L108.063 290.913L108.496 291.005H108.502L110.158 291.328H110.163C127.979 294.494 148.535 297.394 162.421 297.394C162.686 297.394 162.946 297.394 163.206 297.394H163.292L163.315 297.382L166.056 297.082L168.023 296.846L169.46 296.656H169.5H169.506L173.7 296.01L173.786 295.993L177.871 295.249L182.521 294.257L182.596 294.24H182.602L184.142 293.877L184.269 293.848L185.631 293.502L187.875 292.908L188.665 292.689L189.998 292.32L190.431 292.199L191.042 292.02L195.058 290.775H195.063L198.502 289.616L198.773 289.518L199.01 289.437L200.371 288.947L200.429 288.924H200.435L203.36 287.794L205.396 286.987H205.408L208.385 285.73H208.396L208.662 285.609L211.892 284.15L212.688 283.781L214.69 282.812H214.696L216.837 281.728L218.031 281.117L218.481 280.881L220.638 279.716H220.644L220.962 279.537L223.875 277.883L224.302 277.635L226.125 276.545H226.131L226.679 276.211L229.465 274.464H229.471L231.848 272.901L232.817 272.232L234.808 270.86L234.819 270.848L235.39 270.439L237.046 269.24L237.387 268.98L239.931 267.06V267.055L240.369 266.714L242.077 265.365L242.417 265.083L244.864 263.071L246.294 261.837L247.044 261.185C247.062 261.179 247.073 261.168 247.09 261.156L247.54 260.753L247.61 260.689L248.164 260.199L249.594 258.908L251.608 257.022L251.873 256.763L254.112 254.578L254.239 254.451L255.865 252.802L256.281 252.364L257.856 250.703L258.485 250.034L258.594 249.919H258.6L260.481 247.826L262.506 245.497L262.529 245.462L264.248 243.404L265.027 242.429L266.365 240.757L266.371 240.746L266.394 240.723L267.727 238.982L268.575 237.851L270.029 235.874L271.627 233.596L271.771 233.377L273.467 230.863V230.858L274.973 228.517L275.1 228.309L276.687 225.738L278.025 223.46L278.21 223.137L279.692 220.497L280.431 219.119L281.158 217.747L281.164 217.729L282.669 214.362V214.356L283.102 213.33L284.135 210.747C284.135 210.747 284.135 210.735 284.14 210.73L284.723 209.19C284.723 209.19 284.74 209.161 284.746 209.15L284.948 208.585L284.971 208.527L285.698 206.527V206.492L285.773 205.765L293.094 183.487V183.475L293.239 182.853L293.262 182.749V182.72L296.585 146.99V146.955L296.66 146.973ZM284.752 207.063L278.764 178.747L278.717 178.667L245.152 149.452L245.244 149.331L245.256 149.175C245.233 149.129 245.181 149.1 245.129 149.1L247.552 145.324L247.921 144.736L247.938 144.707L266.544 106.728L269.117 110.539L289.315 159.698L285.208 205.662L284.746 207.063H284.752ZM276.185 225.455L274.598 228.027L274.471 228.229L272.965 230.564L271.269 233.072L271.125 233.279L269.533 235.545L268.085 237.517L267.242 238.636L265.921 240.36C265.921 240.36 265.921 240.365 265.915 240.371L265.892 240.4L264.554 242.072L263.775 243.041L262.067 245.087L262.039 245.128L260.019 247.446L258.139 249.533L258.029 249.648L257.4 250.311L255.825 251.972L255.415 252.404L253.794 254.041C253.794 254.041 253.794 254.041 253.789 254.047L253.662 254.174L251.417 256.354L251.152 256.607L249.144 258.481L247.725 259.761L246.877 259.294H246.86L246.785 259.254H246.779L246.64 259.208L246.392 259.127H246.381L246.34 259.11L246.075 259.035L246.006 259.017H245.994L245.308 258.856L245.204 258.833H245.198L244.887 258.769L244.788 258.746L244.442 258.683L244.287 258.66L243.946 258.602L243.79 258.579H243.785L243.421 258.527L243.294 258.51H243.288L242.787 258.446H242.763L228.283 257.743L249.698 244.811L249.715 244.799L268.483 230.062H268.494L268.696 229.866L269.089 229.497L269.1 229.485L282.41 213.636L282.208 214.12L280.702 217.481L279.987 218.83C279.987 218.83 279.987 218.836 279.981 218.842L279.242 220.214L277.765 222.849L277.581 223.172L276.242 225.444L276.185 225.455ZM247.085 260.332L247.01 260.395L245.844 261.41L244.414 262.638L241.979 264.639C241.979 264.639 241.979 264.639 241.973 264.645L241.638 264.921L239.931 266.271L239.51 266.593L239.498 266.599L236.942 268.525C236.942 268.525 236.937 268.531 236.931 268.536L236.602 268.779L234.946 269.978L234.375 270.387L232.385 271.759L231.415 272.422L229.05 273.979L226.263 275.726C226.263 275.726 226.258 275.726 226.252 275.732L225.715 276.066L223.904 277.145L223.477 277.393L220.563 279.041L220.252 279.214L218.094 280.379C218.094 280.379 218.083 280.379 218.083 280.385L217.65 280.61C217.65 280.61 217.644 280.61 217.638 280.616L216.456 281.215L214.315 282.299L212.319 283.262L211.529 283.631L208.298 285.084C208.298 285.084 208.292 285.084 208.287 285.084L208.033 285.193L205.062 286.45L203.025 287.258C203.025 287.258 203.019 287.258 203.013 287.258L200.106 288.376L200.042 288.399C200.042 288.399 200.037 288.399 200.031 288.399L198.681 288.884L198.45 288.964L198.185 289.056L196.188 289.731L214.338 281.942L214.408 281.878L227.238 258.55C227.273 258.539 227.302 258.51 227.313 258.475L227.388 258.314L242.677 259.058L243.162 259.121C243.162 259.121 243.162 259.121 243.167 259.121L243.294 259.138L243.658 259.19C243.664 259.19 243.669 259.19 243.675 259.19L243.808 259.208L244.137 259.259C244.137 259.259 244.137 259.259 244.142 259.259L244.292 259.283C244.292 259.283 244.292 259.283 244.298 259.283L244.644 259.346L244.742 259.363L245.054 259.427C245.054 259.427 245.065 259.427 245.071 259.427L245.152 259.444L245.821 259.6L245.885 259.617L246.15 259.692C246.15 259.692 246.156 259.692 246.162 259.692H246.179V259.698L246.415 259.773L246.542 259.819L246.588 259.836L247.206 260.176L247.085 260.286V260.332ZM187.575 292.378L185.331 292.971C185.331 292.971 185.331 292.971 185.325 292.971L183.975 293.312C183.975 293.312 183.975 293.312 183.969 293.312L183.854 293.34C183.854 293.34 183.848 293.34 183.842 293.34L182.319 293.704L182.25 293.721C182.25 293.721 182.25 293.721 182.244 293.721L177.611 294.707L173.533 295.451L173.463 295.462L169.263 296.108L169.223 296.114L167.792 296.304L166.229 296.488C166.229 296.488 166.194 296.477 166.171 296.477C166.165 296.477 166.16 296.477 166.154 296.477L165.658 296.54C165.658 296.54 165.646 296.54 165.64 296.54L164.054 296.731C164.054 296.731 164.054 296.731 164.048 296.731L163.725 296.765L164.498 295.687L226.338 258.89L213.929 281.452L190.119 291.674L189.704 291.789C189.704 291.789 189.698 291.789 189.692 291.789L188.371 292.153L187.581 292.366L187.575 292.378ZM162.254 296.852H162.248C148.442 296.852 127.898 293.963 110.111 290.798L108.461 290.481L108.023 290.388L106.846 290.14L106.563 290.077L110.792 271.494L112.431 264.304L113.117 264.437L112.956 264.691C112.956 264.691 112.95 264.725 112.944 264.737L112.933 264.766V264.771C112.933 264.806 112.944 264.841 112.973 264.864C112.979 264.869 112.99 264.875 112.996 264.881L162.946 296.5H163.096L163.113 296.494L162.86 296.846C162.658 296.846 162.45 296.846 162.242 296.846L162.254 296.852ZM98.7287 288.053L98.2095 287.898L96.6402 287.413L94.7306 286.785L94.2922 286.635L92.4229 285.978L92.2095 285.903L90.5249 285.274C90.5249 285.274 90.5191 285.274 90.5133 285.274L90.1037 285.119L88.2864 284.398L88.2633 284.386H88.2575L87.8479 284.213C87.8479 284.213 87.8479 284.213 87.8422 284.213L86.7864 283.769C86.7864 283.769 86.7806 283.769 86.7749 283.769L86.2498 283.544L85.2575 283.112L84.7441 282.881L83.6306 282.374L83.2845 282.213C83.2845 282.213 83.2729 282.207 83.2672 282.201L81.8018 281.503L81.4729 281.342L80.3479 280.783L79.8575 280.535C79.8575 280.535 79.8518 280.535 79.846 280.529L78.8941 280.039C78.8941 280.039 78.8883 280.039 78.8825 280.033L78.7325 279.952L78.3633 279.756C78.3633 279.756 78.3633 279.756 78.3575 279.756L77.3825 279.232L76.9268 278.984L75.5191 278.2L72.6806 276.533C72.6806 276.533 72.6806 276.533 72.6748 276.533L71.0998 275.588L70.9902 275.519L68.4575 273.927L68.3537 273.864L67.4364 273.264L65.4056 271.915L62.7517 270.07L60.1729 268.19L59.8729 267.971L57.6402 266.271L56.0479 264.996L54.2998 263.572L52.8113 262.338L52.7479 262.286L50.394 260.245C50.394 260.245 50.3883 260.24 50.3825 260.234L50.2671 260.136L48.0979 258.175C48.0979 258.175 48.0921 258.17 48.0863 258.164L48.0517 258.135L48.0402 258.124L45.7729 255.985L45.4959 255.719L43.5748 253.828L43.5517 253.805C43.5517 253.805 43.5517 253.805 43.5459 253.799L41.3998 251.603C41.3998 251.603 41.3998 251.603 41.394 251.597L41.2613 251.458L39.8998 250.017L39.2882 249.354L37.2459 247.082C37.2459 247.082 37.2402 247.071 37.2344 247.071L36.9344 246.731L36.0286 245.687L35.2325 244.753L33.294 242.406C33.294 242.406 33.2882 242.401 33.2825 242.395L33.0575 242.118C33.0575 242.118 33.0575 242.112 33.0517 242.107L31.3959 240.014L29.5671 237.604L29.3248 237.281L28.9613 236.785L60.6517 264.91L60.669 264.921L60.6806 264.933L60.8075 265.014L61.4652 265.406L104.123 289.541L103.684 289.431C103.684 289.431 103.679 289.431 103.673 289.431L103.021 289.27C103.021 289.27 103.015 289.27 103.009 289.27L102.063 289.028C102.063 289.028 102.063 289.028 102.058 289.028L101.406 288.855C101.406 288.855 101.4 288.855 101.394 288.855L100.431 288.589L99.8191 288.416L98.7576 288.105L98.7287 288.053ZM21.144 225.034V225.029V225.017L21.1267 225C21.1267 225 21.1267 224.994 21.1267 224.988L19.6209 222.394L19.5113 222.203L18.1728 219.793C18.1728 219.793 18.1671 219.776 18.1613 219.77V219.765L17.0998 217.758L16.6555 216.916C16.6555 216.916 16.6555 216.916 16.6555 216.91L15.4151 214.443C15.4151 214.443 15.4151 214.443 15.4151 214.437V214.425L14.3651 212.223C14.3651 212.223 14.3651 212.217 14.3651 212.211L13.6267 210.626L27.6286 214.253L52.0152 220.566C52.0152 220.566 52.0671 220.612 52.1075 220.618L52.2402 220.641V220.727C52.2517 220.779 52.2863 220.825 52.3325 220.848L52.4133 220.837L70.4075 257.899L60.8652 264.206L27.2536 234.375L26.6652 233.533L24.3517 230.108L22.7767 227.64L22.6844 227.491L21.1728 225.023L21.144 225.034ZM11.3824 205.518L11.3074 205.339V205.321H11.3017L10.4536 203.234V203.223L9.3459 200.305L9.28821 200.15L8.30744 197.399L8.10552 196.817L8.09398 196.782L8.04206 196.633L7.67859 194.863L7.37282 188.653L26.5498 165.342L26.5613 165.446C26.5671 165.515 26.6248 165.567 26.694 165.573C26.694 165.573 26.6998 165.573 26.7055 165.573C26.7228 165.573 26.7402 165.573 26.7575 165.561L37.7594 195.03V195.041L37.8459 195.214L38.6248 196.834L38.8556 197.307L39.4729 198.564L39.8363 199.291L40.2113 200.04L40.8113 201.216L40.9959 201.568L51.8248 219.874L13.2344 209.882L12.8248 208.965L11.9882 207.017L11.3651 205.518H11.3824ZM2.80936 176.637L2.7459 176.291L2.25551 173.506L2.2382 173.403L1.7882 170.462L1.75359 170.22L1.42474 167.758L1.30359 166.72C1.30359 166.72 1.30359 166.709 1.30359 166.703L1.05551 164.356L1.00359 163.82L0.82474 162.01V161.998L0.807432 161.779V161.733L0.74974 161.024L0.651663 156.867L0.513201 150.83V150.784L0.755509 145.203L4.78244 122.878C4.81128 123.431 4.84013 124.089 4.86898 124.844C5.16321 132.08 5.63051 148.005 6.02859 162.125C6.22475 169.182 6.40359 175.79 6.53052 180.633C6.65167 185.061 6.72667 188.019 6.73821 188.486V188.538V188.561V188.589L6.9459 193.173L6.4209 191.518L5.57282 188.543C5.57282 188.543 5.57282 188.543 5.57282 188.538L5.4459 188.082L5.09398 186.773L4.78821 185.574L3.86513 181.671L3.40359 179.583V179.572V179.566C3.40359 179.566 3.40359 179.56 3.40359 179.555L2.83243 176.655L2.80936 176.637ZM0.772817 136.41H0.790124L1.07859 133.4L1.13628 132.818L1.38436 130.679V130.644L1.43051 130.27L1.85166 127.208L1.90359 126.833L2.33051 124.164L2.71128 122.053L2.95936 120.762V120.745L2.99397 120.577L3.48436 118.127V118.116L4.15936 115.106L4.24013 114.771L4.89205 112.131V112.113L5.69398 109.133L5.80359 108.741L6.39782 106.688L6.55359 106.169L7.48244 103.223L7.59783 102.848L8.46898 100.282L9.51898 97.3821C9.51898 97.3821 9.51898 97.3706 9.52475 97.3706L9.96321 96.1944L10.3267 95.2604L10.6324 94.4935C10.6324 94.4935 10.6324 94.482 10.6382 94.4762L11.8209 91.5876L12.0978 90.9188L12.5536 89.8521L13.044 88.7451C13.044 88.7451 13.0498 88.7336 13.0498 88.7278L14.3132 85.9776C14.3132 85.9776 14.3132 85.9719 14.3132 85.9661L14.5094 85.5452L15.6171 83.2677L16.9786 80.5809L17.0825 80.3734L18.3921 77.923L19.869 75.2938L19.9728 75.1093L21.3805 72.705V72.6935L22.5055 70.8773L23.3305 69.5685L23.3882 69.4762L23.5382 69.2398L24.5709 67.6312C24.5709 67.6312 24.5767 67.6254 24.5767 67.6197L24.594 67.5966L24.9632 67.0431L26.9421 74.1118L26.9825 74.1753L27.0286 74.2214L27.0748 74.2675L28.8344 75.7724L20.9998 86.681L20.994 86.6926L20.9594 86.7387L20.4575 87.5055L20.4459 87.5228L4.59782 120.733V120.75L4.57474 120.779V120.791H4.56898V120.802L4.54013 120.9L4.2459 121.892V121.909L0.311278 143.686L0.345893 142.614L0.513201 139.518L0.570893 138.549L0.663201 137.333L0.738201 136.433H0.720894L0.772817 136.41ZM27.7325 63.059L27.8075 62.9552L28.0671 62.592V62.5862L29.3248 60.8796L30.2594 59.64L30.3517 59.5189L30.4902 59.3402L31.7017 57.7546L31.719 57.7315L33.6286 55.3445L33.8363 55.0851L35.544 53.0383C35.544 53.0383 35.5498 53.0325 35.5556 53.0267L35.5844 52.9921L37.5979 50.6801L37.9844 50.2419L39.444 48.6333C39.444 48.6333 39.4498 48.6275 39.4556 48.6218L39.6517 48.4084L39.6632 48.3969L41.7806 46.154C41.7806 46.154 41.7863 46.1483 41.7921 46.1425L42.0344 45.8888L43.9498 43.9458L45.4325 42.5101L30.5305 66.7202L30.5132 66.7606V66.7837H30.5075L30.4267 67.1123L30.3402 67.4871V67.4986L29.0998 75.0862L27.5652 73.7774L25.4767 66.3109L26.0652 65.4518L27.7325 63.0475V63.059ZM59.9306 30.16L61.5633 28.9608L61.6614 28.8858L61.7133 28.8512L63.144 27.8134L63.2364 27.75L65.9017 25.9165L66.1729 25.732L68.4517 24.2329L68.5729 24.158C68.5729 24.158 68.5787 24.158 68.5844 24.1522L70.6325 22.8607H70.6556L48.0344 43.7094L48.0229 43.7267L47.6767 44.1476L46.8806 45.1393L46.0729 46.1656L45.8075 46.5115V46.5173L41.2498 52.8134L41.244 52.8249L40.4767 53.9723L40.1825 54.422L39.1902 55.973L39.1844 55.9845L39.1729 56.0076L30.9517 71.2636V71.2751L30.7209 71.7767L30.2882 72.7396L30.0805 73.2239L30.9921 67.6543L31.0729 67.3026C31.0729 67.3026 31.0729 67.3026 31.0729 67.2968L31.1421 67.02L47.2902 40.7862L48.4844 39.6792L50.8267 37.5805L51.2075 37.2461L53.2094 35.5279L55.6498 33.5214L55.9325 33.2908L58.119 31.5726V31.5669L59.9306 30.2004V30.16ZM133.765 2.28297L147.75 8.56179L126.294 24.0196L114.294 32.6681L133.765 2.28297ZM135.196 1.79865L135.542 1.71216L135.635 1.6891L136.667 1.44694L136.713 1.43541L137.129 1.34893C137.129 1.34893 137.129 1.34893 137.135 1.34893L137.238 1.32586C137.238 1.32586 137.238 1.32586 137.244 1.32586L137.596 1.25667H137.636V1.25091L141.035 0.818483H141.069H141.086H141.092L142.771 0.743529L144.496 0.680106H144.635L145.269 0.668575L145.431 1.60838V1.62568L145.442 1.65451L145.494 1.81595L145.517 1.88513L145.563 2.02351L145.581 2.0754L147.138 6.24399L147.161 6.31318L147.283 6.61876L147.779 7.90451L134.567 1.97162L135.167 1.81018L135.196 1.79865ZM148.085 0.62245H150.946L154.177 0.708935L154.529 0.720466L157.361 0.858843H157.402C157.402 0.858843 157.408 0.858843 157.413 0.858843C157.413 0.858843 157.419 0.858843 157.425 0.858843L159.3 0.985688L156.421 2.8653L148.535 8.01405L147.894 6.37084L147.779 6.06525L147.756 6.00183L146.198 1.83901V1.82748V1.80441C146.198 1.80441 146.186 1.79865 146.186 1.79288L146.146 1.6718L146.123 1.60838L146.071 1.45271L145.933 0.645512L148.085 0.62245ZM177.121 3.33809C177.121 3.33809 177.121 3.33809 177.127 3.33809L177.819 3.4707L180.358 3.99537H180.381L180.45 4.01844C180.45 4.01844 180.456 4.01844 180.461 4.01844L182.186 4.4105L183.45 4.70455L183.583 4.73338L183.94 4.81987L184.044 4.84869L188.96 6.3593L231.992 51.7295L168.635 1.95432L171.692 2.38675L172.661 2.54819L177.115 3.34385L177.121 3.33809ZM190.927 6.69948C190.927 6.69948 190.938 6.69948 190.944 6.70524L191.238 6.79173C191.238 6.79173 191.244 6.79173 191.25 6.79173L194.96 7.95063L198.687 9.21908L201.167 10.1416L202.287 10.5625L202.91 10.8046L203.071 10.8681L203.285 10.9488L203.769 11.1391L208.823 13.4915L227.567 30.0274L227.613 30.0909L227.948 30.6271C227.948 30.6271 227.948 30.6328 227.954 30.6386L228.087 30.8519L228.392 31.3593C228.392 31.3593 228.392 31.3651 228.392 31.3708L228.525 31.5957L228.854 32.1723C228.854 32.1723 228.854 32.178 228.86 32.1838L228.912 32.2818L234.912 50.8358L234.946 51.0722V51.1125V51.1241L235.212 53.5572C235.148 53.5572 235.096 53.6091 235.085 53.6725L189.9 6.40543L190.927 6.69948ZM217.875 17.6485L218.071 17.7523L218.169 17.8042L220.108 18.8593L222.087 19.9548L224.925 21.6153L227.752 23.3392L230.469 25.092C230.469 25.092 230.469 25.092 230.475 25.092L230.844 25.3284L232.062 26.1414L233.152 26.8909L233.827 27.3695L236.452 29.2491L238.235 30.5694V30.5752L238.304 30.6271L238.321 30.6444L239.717 31.7283L241.125 32.818L243.208 34.5016L243.277 34.5593L244.864 35.8854L244.921 35.9488L246.265 37.3787L247.373 39.2583L247.39 39.3044C247.39 39.3044 247.39 39.3102 247.39 39.3159L247.408 39.3678L247.31 42.8561L247.281 42.931C247.281 42.931 247.281 42.9368 247.281 42.9426L247.258 43.006L243.663 47.9068L243.415 48.149L235.904 54.1626L235.563 51.0433V51.0318L235.558 50.9915L235.523 50.7262V50.7032V50.6859L229.488 32.0397L229.477 32.0108L229.39 31.8609L229.062 31.2844L228.929 31.0537L228.617 30.529L228.473 30.2927L228.138 29.7564L228.069 29.6411L228.058 29.6181L228.035 29.5892L227.965 29.5316L210.952 14.2179L211.2 14.3275L211.996 14.7022L215.054 16.184C215.054 16.184 215.06 16.184 215.065 16.1898L215.481 16.3974L217.817 17.5966L217.869 17.6254L217.875 17.6485ZM252.669 42.9656L253.402 43.6863L254.037 44.3206L254.071 44.3552L254.089 44.3724L256.229 46.5634C256.229 46.5634 256.235 46.5749 256.24 46.5749L256.667 47.0189C256.667 47.0189 256.667 47.0189 256.673 47.0247L257.383 47.7684L258.352 48.8178V48.8236L260.994 51.7871L262.379 53.39L262.402 53.4188L263.562 54.8314L266.025 57.8757L266.037 57.893L266.1 57.9795L272.1 68.5595L257.821 66.0053L257.677 65.913L257.671 65.9073H257.66V65.8957L236.25 54.7161L243.854 48.6275L243.871 48.616L243.888 48.5987L244.16 48.3335L244.177 48.3162L247.835 43.3231L247.852 43.2885L247.898 43.1617L247.95 43.0233L247.962 43.0002L247.973 42.9483L248.077 39.2871V39.2352L248.019 39.0968L247.985 39.0046L247.979 38.9815L247.967 38.9642L247.95 38.9354L247.506 38.1686L247.996 38.601L249.34 39.8233L250.148 40.5729L251.833 42.1642C251.833 42.1642 251.839 42.17 251.844 42.1757L252.658 42.9541L252.669 42.9656ZM40.4133 198.997L40.0556 198.282C40.0556 198.282 40.0556 198.276 40.0556 198.27L39.444 197.03V197.019L39.2132 196.552C39.2132 196.552 39.2132 196.546 39.2132 196.54L38.4402 194.932L38.3652 194.776L27.2709 165.077L27.1209 164.552L28.644 159.427L39.4844 134.231L39.5882 134.035L73.4537 145.987L73.3094 146.99L73.2979 147.088L52.246 219.269L41.5786 201.239L41.3998 200.899L40.7998 199.729L40.419 198.979L40.4133 198.997ZM66.6748 96.8459L107.481 147.094L127.679 171.973L92.9537 187.327L74.1229 145.774L74.296 144.638C74.296 144.638 74.296 144.638 74.296 144.632L74.3191 144.482V144.436L66.6748 96.8459ZM102.952 228.805L53.2613 220.18L92.6768 188.278L102.952 228.805ZM63.294 99.9998L65.8671 97.0477L73.6902 144.372L73.6671 144.528L73.5979 144.995L39.969 133.389L63.2998 99.994L63.294 99.9998ZM66.894 96.1022L97.9268 83.1467L105.825 79.8487L150.848 67.1296L174.767 60.378L142.811 136.462L128.106 171.477L66.894 96.1022ZM128.988 171.033L175.46 60.3953L221.556 95.3468L128.988 171.033ZM192.265 191.415L140.544 187.131L140.423 187.177L140.371 187.24L139.881 186.347L139.869 186.329L128.74 172.267L131.533 171.431L132.19 171.235L171.375 161.041L172.24 160.851L173.752 160.522L193.956 156.515L196.615 156.042H196.627L243.86 149.89L192.26 191.42L192.265 191.415ZM140.244 188.347L163.996 231.544L104.515 229.036L140.244 188.347ZM140.74 187.788L191.798 192.014L164.677 231.452L140.694 187.84L140.74 187.788ZM179.965 271.223V271.177V261.86V261.831L179.919 261.612L179.885 261.439V261.427L179.873 261.404L175.852 251.003L175.84 250.986L165.133 232.259L165.588 232.143L170.025 231.036L204.271 237.759H204.323L204.987 237.655L205.235 237.615L213.231 236.422L205.685 247.336L204.842 248.455C204.842 248.455 204.837 248.46 204.831 248.466L204.675 248.674L203.89 249.694L203.648 250.006L202.904 250.957L202.61 251.332L201.9 252.22C201.9 252.22 201.894 252.225 201.888 252.231L201.554 252.646L200.856 253.505C200.856 253.505 200.85 253.511 200.844 253.517L200.469 253.972L199.777 254.803L199.35 255.31L198.715 256.059C198.715 256.059 198.71 256.065 198.704 256.071L198.202 256.653L197.631 257.311C197.631 257.311 197.625 257.316 197.619 257.322L197.019 258.003C197.019 258.003 197.013 258.008 197.008 258.014L196.535 258.544C196.535 258.544 196.529 258.55 196.523 258.556L195.802 259.352C195.802 259.352 195.796 259.357 195.79 259.363L195.473 259.715C195.473 259.715 195.467 259.721 195.462 259.726L194.55 260.718C194.55 260.718 194.544 260.724 194.538 260.73L194.44 260.833L178.552 275.34L179.971 271.235L179.965 271.223ZM196.54 155.402H196.529L196.5 155.408L193.84 155.881H193.835L173.625 159.894L172.113 160.228L171.242 160.424L132.04 170.624H132.023L131.365 170.825L129.652 171.339L221.994 95.8369L227.158 105.489L227.498 106.163L227.573 106.313L244.344 149.193L196.552 155.419L196.54 155.402ZM213.687 235.695L205.131 236.969L204.883 237.01L204.237 237.113L169.973 230.396H169.91L165.421 231.521L192.542 192.078L232.967 195.601L213.681 235.695H213.687ZM193.096 191.484L244.206 150.507L233.215 194.978L193.096 191.484ZM108.756 38.0244L107.596 39.2641L107.371 39.5062L102.392 44.9894L102.254 45.1451L101.059 46.5L80.9306 72.0996C80.9306 72.0996 80.9248 72.1054 80.9191 72.1111L66.4902 95.1912L65.1748 90.7689L65.0133 90.2039L64.7825 89.3621C64.7825 89.3621 64.7825 89.3621 64.7825 89.3563L64.3267 87.6381C64.3267 87.6381 64.3267 87.6381 64.3267 87.6324L64.3094 87.5689L62.146 77.9114L62.1171 77.7615C62.1171 77.7615 62.1171 77.75 62.1171 77.7442L61.8287 76.1298C61.8287 76.1298 61.8287 76.1298 61.8287 76.1241L61.771 75.7954C61.771 75.7954 61.771 75.7897 61.771 75.7839L61.5402 74.3309C61.5402 74.3309 61.5402 74.3309 61.5402 74.3252L61.4767 73.9216C61.4767 73.9216 61.4767 73.91 61.4767 73.9043L61.2748 72.509C61.2748 72.509 61.2748 72.4974 61.2748 72.4917L61.2171 72.0708C61.2171 72.0708 61.2171 72.0708 61.2171 72.065L61.0267 70.5832L61.0037 70.3641L63.2248 40.6824L97.1422 35.3665L112.333 34.2825L108.779 38.0187L108.756 38.0244ZM61.1825 42.2853L62.4575 41.2071L62.5267 41.1494L60.3402 70.3699V70.3987L60.3748 70.6697L60.5652 72.163L60.6229 72.5839L60.8248 74.0023L60.8883 74.4405L61.1248 75.905L61.1825 76.2451L61.4652 77.8653L61.494 78.0383V78.0498L63.6633 87.7246V87.7361L63.6864 87.8169L64.1479 89.5466L64.3787 90.3941L64.5344 90.9592L65.8498 95.393L62.0248 93.6229L51.346 88.6817L51.2825 88.6471L50.1921 88.1109L49.944 87.9898L48.8536 87.4479L48.646 87.3441L37.2632 81.1229L29.7863 75.6513L61.1652 42.2795L61.1825 42.2853ZM36.9286 81.6591L36.9459 81.6706H36.9575V81.6764L48.369 87.9091L48.5883 88.0244L49.6786 88.5664L49.9267 88.6875L51.0229 89.2237L51.0863 89.2525L65.8498 96.0849L62.7864 99.6019L62.7748 99.6135L39.4671 132.974L21.7036 118.265L25.4825 98.0106L29.5382 76.2509L36.9229 81.6533L36.9286 81.6591ZM21.0863 118.127C20.9998 118.144 20.8844 118.167 20.7459 118.196C19.5171 118.456 16.4017 119.096 13.2517 119.678C11.6767 119.966 10.0959 120.243 8.74013 120.439C7.39013 120.641 6.25359 120.768 5.60744 120.768H5.5959C5.5959 120.768 5.59013 120.768 5.58436 120.768C5.48628 120.768 5.40551 120.768 5.33628 120.756L21.0632 87.8053L21.5363 87.0846C21.5363 87.0846 21.5421 87.0789 21.5478 87.0731L21.5709 87.0327L28.7421 77.0523L21.0805 118.127H21.0863ZM21.7728 119.148L39.1267 133.521L39.0921 133.591L38.9017 133.948V133.96L28.0382 159.202V159.219L26.919 162.973L26.3709 158.314L21.7786 119.153L21.7728 119.148ZM73.9152 147.186V147.163L73.9268 147.094L73.9845 146.702L92.3941 187.69L59.3767 214.408L52.9267 219.632L73.9152 147.192V147.186ZM88.7364 226.989L103.119 229.485L103.136 229.549L70.8921 257.507L53.071 220.797L88.7422 226.989H88.7364ZM93.2364 187.898L127.615 172.699C127.621 172.734 127.638 172.768 127.673 172.791C127.696 172.809 127.731 172.82 127.76 172.82C127.794 172.82 127.823 172.809 127.852 172.786L128.146 172.544L139.338 186.693L139.921 187.753L103.754 228.943L103.644 228.926L93.2422 187.898H93.2364ZM103.938 229.705L103.95 229.693L104.002 229.635L163.638 232.161L112.396 263.491L103.852 229.779L103.933 229.71L103.938 229.705ZM164.515 232.449L175.275 251.268L179.267 261.589L179.296 261.733L179.331 261.912L179.342 271.096L177.635 276.038L113.284 263.82L164.521 232.455L164.515 232.449ZM177.986 276.729C177.986 276.729 178.033 276.695 178.05 276.666L178.079 276.608L178.102 276.591L223.979 259.542L165.398 294.396L177.986 276.724V276.729ZM194.885 261.283H194.89V261.272L195.006 261.151L195.917 260.159L196.246 259.796L196.99 258.971L197.463 258.435L198.081 257.737L198.663 257.068L199.171 256.48L199.823 255.714L200.256 255.2L200.948 254.37L201.329 253.915L202.038 253.044L202.373 252.629L203.094 251.718L203.394 251.343L204.138 250.392L204.381 250.08L205.165 249.054L205.321 248.847L206.181 247.705L206.187 247.693L213.762 236.739L220.356 243.675L220.367 243.692L220.713 244.142L226.713 257.841L179.348 275.444L194.856 261.283H194.885ZM233.821 195.197L244.598 151.603L261.214 218.813L233.821 195.197ZM244.592 148.086L228.144 106.042V106.031L228.052 105.863L227.712 105.183L222.479 95.393L222.513 95.3238L222.467 95.2315L233.025 67.7754V67.7523L234.358 60.9373L235.235 56.4227L246.571 119.932L245.977 135.044L245.908 135.966L245.896 136.128L244.61 148.086H244.592ZM246.513 136.197V136.179L246.525 136.012L246.594 135.09V135.078L247.189 119.914V119.886L247.177 119.828L236.198 55.9788L259.835 92.4813L266.129 106.065C266.129 106.065 266.129 106.1 266.129 106.117L247.367 144.407L246.998 144.989L245.262 147.699L246.502 136.208L246.513 136.197ZM232.396 67.5851L221.925 94.8222L176.14 60.1128L206.683 56.4458L234.831 55.0217L232.39 67.5851H232.396ZM206.642 55.8116H206.631L188.562 57.9795L175.731 59.5189C175.731 59.5189 175.667 59.4785 175.627 59.4785C175.615 59.4785 175.598 59.4785 175.586 59.4785L175.488 59.5074L155.792 20.8773V20.8658L149.215 9.29404L191.152 31.5957L234.069 54.422L206.648 55.8116H206.642ZM148.286 8.96539L155.227 21.1771L171.75 53.586L174.594 59.1672L174.138 58.9423L172.886 58.3196H172.875L113.763 33.827L148.281 8.95963L148.286 8.96539ZM173.856 59.5189L174.438 59.8072L105.629 79.2433H105.611L67.1825 95.295L81.4383 72.4859L101.544 46.9209L102.727 45.5775L102.865 45.4218L107.838 39.9444L108.063 39.7022L109.223 38.4626L113.14 34.3517L113.227 34.3056L172.621 58.9077L173.856 59.5247V59.5189ZM64.569 30.5925L64.5517 30.6386L62.6017 39.1603V39.1891L62.596 40.2615L62.0594 40.717L60.7614 41.8125L60.7498 41.824L30.3517 74.1522L30.8594 72.9875C30.8594 72.9875 30.8594 72.976 30.8652 72.9702L31.2921 72.0131C31.2921 72.0131 31.2921 72.0074 31.2921 72.0016L31.5113 71.5173L39.7152 56.2959C39.7152 56.2959 39.7152 56.2843 39.7209 56.2843L40.7017 54.7564C40.7017 54.7564 40.7017 54.7507 40.7075 54.7449L41.0017 54.2952C41.0017 54.2952 41.0017 54.2952 41.0017 54.2894L41.7575 53.1594L46.3094 46.8748L46.5748 46.5346C46.5748 46.5346 46.5748 46.5346 46.5748 46.5288L47.3767 45.5141L48.1613 44.5397C48.1613 44.5397 48.1671 44.5339 48.1729 44.5281L48.4959 44.1361L66.6748 27.3867L64.5633 30.5925H64.569ZM5.73436 131.428C5.62475 128.257 5.53244 125.611 5.45167 123.76C5.41128 122.832 5.37667 122.105 5.34205 121.604C5.34205 121.529 5.33052 121.46 5.33052 121.39C5.42282 121.396 5.51513 121.402 5.62475 121.402C6.44398 121.402 7.81706 121.229 9.44975 120.981C13.6959 120.318 19.6209 119.09 21.0921 118.779L26.4517 164.454L7.34975 187.673C7.25167 184.035 6.86513 169.361 6.44975 154.693C6.20744 146.235 5.95359 137.777 5.74013 131.428H5.73436ZM70.6614 258.487L70.9498 259.081L70.9844 259.127L103.788 288.595L61.7594 264.818L61.4133 264.61L70.6671 258.493L70.6614 258.487ZM26.9248 165.175L26.919 165.14V165.175H26.9248ZM177.04 276.862C177.04 276.862 177.063 276.891 177.075 276.902L164.036 295.208L163.038 295.802L113.642 264.535L177.161 276.597L177.069 276.683C177.017 276.729 177.006 276.804 177.04 276.862ZM227.215 257.322L221.302 243.819L221.285 243.79L220.904 243.3L220.875 243.271L220.863 243.254L214.16 236.208L214.188 236.151L214.385 235.845V235.747L233.579 195.831L261.364 219.77L261.45 220.866L227.227 257.328L227.215 257.322ZM266.498 105.304L260.412 92.17L260.4 92.1527L236.827 55.7539L257.365 66.4781C257.365 66.4781 257.365 66.4781 257.371 66.4781L257.51 66.5646L257.556 66.5819L272.475 69.5454L266.498 105.304ZM180 24.9479L149.019 8.46954L157.31 3.05557L160.367 1.06064L162.231 1.22208L164.204 1.40658L167.354 1.76982H167.388L218.256 41.7375L232.217 52.7096L180.011 24.9479H180ZM113.561 5.41373L132.992 2.31179L113.088 33.3658L106.459 25.2246L105.946 14.4255L105.611 7.351L113.209 5.49445L113.354 5.45986L113.567 5.41373H113.561ZM110.896 31.6937L112.477 33.6367L97.0614 34.738H97.0499L63.7844 39.9502L80.4633 22.3879L80.6075 22.2668C80.6075 22.2668 80.6133 22.2611 80.6191 22.2553L81.7845 21.2924C81.7845 21.2924 81.7902 21.2867 81.796 21.2809L81.9287 21.1713L93.4672 14.3967L104.983 7.63929L105.831 25.4149L105.865 25.5014L110.908 31.6879L110.896 31.6937ZM99.7152 9.99168L81.5652 20.6467L81.5479 20.6582L81.3748 20.7966L80.1979 21.771L80.0422 21.9036L80.0306 21.9151H80.0248V21.9266L63.2306 39.61V39.2525L65.1517 30.8692L68.2152 26.2221L71.6364 22.8261L99.721 9.99168H99.7152ZM71.4806 258.717L71.1806 258.101L103.315 230.241L111.859 263.935L110.608 269.447L105.998 289.714L71.4864 258.712L71.4806 258.717ZM283.615 210.511L282.231 212.794L268.564 229.065L268.194 229.411L268.01 229.583L249.283 244.286L228.375 256.913L262.044 221.068L262.085 220.958L262.05 220.474L268.523 228.107L268.627 228.159L268.737 228.119L268.99 227.877C269.048 227.825 269.048 227.738 269.002 227.681L261.998 219.447L261.975 219.43L261.964 219.419L245.1 150.248L278.175 179.036L284.354 208.268L283.615 210.505V210.511ZM292.708 182.645L292.69 182.732L292.558 183.331L286.102 202.975L289.973 159.634L289.962 159.565L269.7 110.245L269.689 110.222L266.89 106.077L272.902 70.3641L291.439 114.852L291.485 115.048L291.583 115.44L296.019 147.007L292.708 182.651V182.645Z" fill="url(#paint0_radial_382_2109)" fill-opacity="0.2" style="mix-blend-mode:color-dodge"/>
</g>
<defs>
<radialGradient id="paint0_radial_382_2109" cx="0" cy="0" r="1" gradientUnits="userSpaceOnUse" gradientTransform="translate(148.142 148.737) scale(148.685 148.593)">
<stop stop-color="#CEB11A"/>
<stop offset="0.36" stop-color="#D7B01B"/>
<stop offset="0.97" stop-color="#F0B01D"/>
<stop offset="1" stop-color="#F2B01E"/>
</radialGradient>
</defs>
</svg>
